<svg width="1632" height="3072" xmlns="http://www.w3.org/2000/svg" xmlns:xlink="http://www.w3.org/1999/xlink" overflow="hidden"><defs><clipPath id="clip0"><path d="M0 0 1632 0 1632 3072 0 3072Z" fill-rule="evenodd" clip-rule="evenodd"/></clipPath></defs><g clip-path="url(#clip0)"><rect x="0" y="0" width="1632" height="3072" fill="#FFFFFF"/><path d="M3663.1 1053.34 932.311 4040.92-901.024 2365.16 1829.77-622.415Z" fill="#000000" fill-rule="evenodd" fill-opacity="0.0196078"/><path d="M814 114 814 2817.54" stroke="#ED7D31" stroke-width="8" stroke-miterlimit="8" stroke-dasharray="32 24" fill="none" fill-rule="evenodd"/><path d="M796 242C796 232.059 804.059 224 814 224 823.941 224 832 232.059 832 242 832 251.941 823.941 260 814 260 804.059 260 796 251.941 796 242Z" fill="#0FBAF3" fill-rule="evenodd"/><text fill="#0FBAF3" font-family="Trebuchet MS,Trebuchet MS_MSFontService,sans-serif" font-weight="400" font-size="31" transform="translate(842.242 249)">2000</text><path d="M178 168.167C178 152.611 190.611 140 206.167 140L752.833 140C768.389 140 781 152.611 781 168.167L781 280.833C781 296.389 768.389 309 752.833 309L206.167 309C190.611 309 178 296.389 178 280.833Z" fill="#0FBAF3" fill-rule="evenodd"/><text fill="#FFFFFF" font-family="Trebuchet MS,Trebuchet MS_MSFontService,sans-serif" font-weight="400" font-size="31" transform="translate(199.627 198)">Choem<tspan x="104.767" y="0">Thea was born on Jan 25</tspan><tspan font-size="21" x="453.1" y="-9">th</tspan><tspan x="472.767" y="0">, 2000</tspan><tspan x="78.4533" y="38">Father name is </tspan><tspan x="297.453" y="38">Koem</tspan><tspan x="383.973" y="38">Cheng,</tspan><tspan x="86.2133" y="76">Mother name is </tspan><tspan x="311.213" y="76">Nou</tspan><tspan x="374.713" y="76">Sokhon</tspan></text><path d="M796 355C796 345.059 804.059 337 814 337 823.941 337 832 345.059 832 355 832 364.941 823.941 373 814 373 804.059 373 796 364.941 796 355Z" fill="#3583D8" fill-rule="evenodd"/><text fill="#3583D8" font-family="Trebuchet MS,Trebuchet MS_MSFontService,sans-serif" font-weight="400" font-size="31" transform="translate(719.96 365)">2007</text><path d="M850 298.001C850 284.745 860.745 274 874.001 274L1429 274C1442.25 274 1453 284.745 1453 298.001L1453 393.999C1453 407.255 1442.25 418 1429 418L874.001 418C860.745 418 850 407.255 850 393.999Z" fill="#3583D8" fill-rule="evenodd"/><text fill="#FFFFFF" font-family="Trebuchet MS,Trebuchet MS_MSFontService,sans-serif" font-weight="400" font-size="31" transform="translate(872.092 339)">Enroll Koh Teav Primary School, and fail <tspan x="49.3734" y="38">at 1</tspan><tspan font-size="21" x="104.373" y="29">st</tspan><tspan x="130.707" y="38">grade because of too small</tspan></text><path d="M796 454C796 444.059 804.059 436 814 436 823.941 436 832 444.059 832 454 832 463.941 823.941 472 814 472 804.059 472 796 463.941 796 454Z" fill="#0FBAF3" fill-rule="evenodd"/><text fill="#0FBAF3" font-family="Trebuchet MS,Trebuchet MS_MSFontService,sans-serif" font-weight="400" font-size="31" transform="translate(844.395 462)">2013</text><path d="M179 410.667C179 397.044 190.044 386 203.667 386L756.333 386C769.956 386 781 397.044 781 410.667L781 509.333C781 522.956 769.956 534 756.333 534L203.667 534C190.044 534 179 522.956 179 509.333Z" fill="#0FBAF3" fill-rule="evenodd"/><text fill="#FFFFFF" font-family="Trebuchet MS,Trebuchet MS_MSFontService,sans-serif" font-weight="400" font-size="31" transform="translate(234.472 433)">Enroll secondary school at Hun Sen <tspan x="-9.33333" y="38">Sompoeupoun High School at Kandal </tspan><tspan x="9" y="76">province and studied from 7</tspan><tspan font-size="21" x="405.333" y="67">th</tspan><tspan x="425" y="76">–</tspan><tspan x="446" y="76">9</tspan><tspan font-size="21" x="462.5" y="67">th</tspan></text><path d="M796 579C796 569.059 804.059 561 814 561 823.941 561 832 569.059 832 579 832 588.941 823.941 597 814 597 804.059 597 796 588.941 796 579Z" fill="#3583D8" fill-rule="evenodd"/><text fill="#3583D8" font-family="Trebuchet MS,Trebuchet MS_MSFontService,sans-serif" font-weight="400" font-size="31" transform="translate(719.466 590)">2016</text><path d="M850 550.834C850 540.984 857.984 533 867.833 533L1435.17 533C1445.02 533 1453 540.984 1453 550.834L1453 622.166C1453 632.016 1445.02 640 1435.17 640L867.833 640C857.984 640 850 632.016 850 622.166Z" fill="#3583D8" fill-rule="evenodd"/><text fill="#FFFFFF" font-family="Trebuchet MS,Trebuchet MS_MSFontService,sans-serif" font-weight="400" font-size="31" transform="translate(937.469 579)">Start new class at high school.<tspan x="47.7534" y="38">Studied from 10</tspan><tspan font-size="21" x="272.087" y="29">th</tspan><tspan x="301.253" y="38">grade</tspan></text><path d="M797 1251C797 1241.06 805.059 1233 815 1233 824.941 1233 833 1241.06 833 1251 833 1260.94 824.941 1269 815 1269 805.059 1269 797 1260.94 797 1251Z" fill="#3583D8" fill-rule="evenodd"/><path d="M851 1221.33C851 1207.89 861.894 1197 875.333 1197L1428.67 1197C1442.11 1197 1453 1207.89 1453 1221.33L1453 1318.67C1453 1332.11 1442.11 1343 1428.67 1343L875.333 1343C861.894 1343 851 1332.11 851 1318.67Z" fill="#3583D8" fill-rule="evenodd"/><text fill="#FFFFFF" font-family="Trebuchet MS,Trebuchet MS_MSFontService,sans-serif" font-weight="400" font-size="31" transform="translate(921.778 1244)">BacII examination at Chung Leap <tspan x="115.113" y="38">On Aug 8</tspan><tspan font-size="21" x="238.553" y="29">th</tspan><tspan x="258.22" y="38">, 2019</tspan><tspan x="84.3333" y="76">Got grade C </tspan>–<tspan x="282" y="76">97.204</tspan></text><path d="M797 1475C797 1465.06 805.059 1457 815 1457 824.941 1457 833 1465.06 833 1475 833 1484.94 824.941 1493 815 1493 805.059 1493 797 1484.94 797 1475Z" fill="#3583D8" fill-rule="evenodd"/><path d="M851 1434.83C851 1420.57 862.566 1409 876.834 1409L1428.17 1409C1442.43 1409 1454 1420.57 1454 1434.83L1454 1538.17C1454 1552.43 1442.43 1564 1428.17 1564L876.834 1564C862.566 1564 851 1552.43 851 1538.17Z" fill="#3583D8" fill-rule="evenodd"/><text fill="#FFFFFF" font-family="Trebuchet MS,Trebuchet MS_MSFontService,sans-serif" font-weight="400" font-size="31" transform="translate(898.728 1460)">Study Computer Science at National <tspan x="9.5" y="38">Institute of Post, Telecom, and ICT </tspan><tspan x="63.8333" y="76">(NIPTICT) at Oct 28</tspan><tspan font-size="21" x="336.333" y="67">th</tspan><tspan x="356" y="76">, 2019</tspan></text><path d="M797 1699C797 1689.06 805.059 1681 815 1681 824.941 1681 833 1689.06 833 1699 833 1708.94 824.941 1717 815 1717 805.059 1717 797 1708.94 797 1699Z" fill="#3583D8" fill-rule="evenodd"/><path d="M851 1670.5C851 1659.73 859.731 1651 870.501 1651L1434.5 1651C1445.27 1651 1454 1659.73 1454 1670.5L1454 1748.5C1454 1759.27 1445.27 1768 1434.5 1768L870.501 1768C859.731 1768 851 1759.27 851 1748.5Z" fill="#3583D8" fill-rule="evenodd"/><text fill="#FFFFFF" font-family="Trebuchet MS,Trebuchet MS_MSFontService,sans-serif" font-weight="400" font-size="31" transform="translate(868.488 1702)">Second time on stage with <tspan x="381.267" y="0">Tonghor</tspan><tspan x="500.867" y="0">Hout</tspan><tspan x="24.02" y="38">as a guitarist on Christmas Day at UC</tspan></text><path d="M796 1923C796 1913.06 804.059 1905 814 1905 823.941 1905 832 1913.06 832 1923 832 1932.94 823.941 1941 814 1941 804.059 1941 796 1932.94 796 1923Z" fill="#3583D8" fill-rule="evenodd"/><path d="M850 1876.17C850 1864.48 859.477 1855 871.167 1855L1431.83 1855C1443.52 1855 1453 1864.48 1453 1876.17L1453 1960.83C1453 1972.52 1443.52 1982 1431.83 1982L871.167 1982C859.477 1982 850 1972.52 850 1960.83Z" fill="#3583D8" fill-rule="evenodd"/><text fill="#FFFFFF" font-family="Trebuchet MS,Trebuchet MS_MSFontService,sans-serif" font-weight="400" font-size="31" transform="translate(897.862 1911)">Joined <tspan x="102.167" y="0">Erobot</tspan><tspan x="204.333" y="0">team which made me </tspan><tspan x="21.1667" y="38">realize lots of people and things.</tspan></text><path d="M797 2147C797 2137.06 805.059 2129 815 2129 824.941 2129 833 2137.06 833 2147 833 2156.94 824.941 2165 815 2165 805.059 2165 797 2156.94 797 2147Z" fill="#3583D8" fill-rule="evenodd"/><text fill="#3583D8" font-family="Trebuchet MS,Trebuchet MS_MSFontService,sans-serif" font-weight="400" font-size="31" transform="translate(720.095 2158)">2020</text><path d="M851 2106.5C851 2095.18 860.178 2086 871.501 2086L1432.5 2086C1443.82 2086 1453 2095.18 1453 2106.5L1453 2188.5C1453 2199.82 1443.82 2209 1432.5 2209L871.501 2209C860.178 2209 851 2199.82 851 2188.5Z" fill="#3583D8" fill-rule="evenodd"/><text fill="#FFFFFF" font-family="Trebuchet MS,Trebuchet MS_MSFontService,sans-serif" font-weight="400" font-size="31" transform="translate(874.2 2140)">Build a website and hosted with Netlify <tspan x="158.033" y="38">on Apr 24</tspan><tspan font-size="21" x="290.473" y="29">th</tspan><tspan x="310.14" y="38">, 2020</tspan></text><path d="M797 2371C797 2361.06 805.059 2353 815 2353 824.941 2353 833 2361.06 833 2371 833 2380.94 824.941 2389 815 2389 805.059 2389 797 2380.94 797 2371Z" fill="#3583D8" fill-rule="evenodd"/><path d="M851 2339.33C851 2328.66 859.656 2320 870.334 2320L1434.67 2320C1445.34 2320 1454 2328.66 1454 2339.33L1454 2416.67C1454 2427.34 1445.34 2436 1434.67 2436L870.334 2436C859.656 2436 851 2427.34 851 2416.67Z" fill="#3583D8" fill-rule="evenodd"/><text fill="#FFFFFF" font-family="Trebuchet MS,Trebuchet MS_MSFontService,sans-serif" font-weight="400" font-size="31" transform="translate(939.374 2370)">Expected to second internship<tspan x="133.313" y="38">On Term 10</tspan></text><path d="M796 1137C796 1127.06 804.059 1119 814 1119 823.941 1119 832 1127.06 832 1137 832 1146.94 823.941 1155 814 1155 804.059 1155 796 1146.94 796 1137Z" fill="#0FBAF3" fill-rule="evenodd"/><path d="M178 1116.33C178 1105.66 186.656 1097 197.334 1097L761.666 1097C772.344 1097 781 1105.66 781 1116.33L781 1193.67C781 1204.34 772.344 1213 761.666 1213L197.334 1213C186.656 1213 178 1204.34 178 1193.67Z" fill="#0FBAF3" fill-rule="evenodd"/><text fill="#FFFFFF" font-family="Trebuchet MS,Trebuchet MS_MSFontService,sans-serif" font-weight="400" font-size="31" transform="translate(236.51 1147)">In relationship with Hong Seavleng <tspan x="117.42" y="38">On May 18</tspan><tspan font-size="21" x="261.92" y="29">th</tspan><tspan x="281.587" y="38">, 2019</tspan></text><path d="M796 1361C796 1351.06 804.059 1343 814 1343 823.941 1343 832 1351.06 832 1361 832 1370.94 823.941 1379 814 1379 804.059 1379 796 1370.94 796 1361Z" fill="#0FBAF3" fill-rule="evenodd"/><path d="M176 1313.83C176 1299.57 187.566 1288 201.834 1288L755.166 1288C769.434 1288 781 1299.57 781 1313.83L781 1417.17C781 1431.43 769.434 1443 755.166 1443L201.834 1443C187.566 1443 176 1431.43 176 1417.17Z" fill="#0FBAF3" fill-rule="evenodd"/><text fill="#FFFFFF" font-family="Trebuchet MS,Trebuchet MS_MSFontService,sans-serif" font-weight="400" font-size="31" transform="translate(221.358 1339)">Got scholarship from examination at <tspan x="-17.1333" y="38">NIPTICT on Oct 8</tspan><tspan font-size="21" x="220.3" y="29">th</tspan><tspan x="239.967" y="38">, 2019 and UC at the </tspan><tspan x="191.253" y="76">same day</tspan></text><path d="M795 1586C795 1576.06 803.283 1568 813.5 1568 823.717 1568 832 1576.06 832 1586 832 1595.94 823.717 1604 813.5 1604 803.283 1604 795 1595.94 795 1586Z" fill="#0FBAF3" fill-rule="evenodd"/><path d="M176 1545.83C176 1534.33 185.328 1525 196.834 1525L758.166 1525C769.672 1525 779 1534.33 779 1545.83L779 1629.17C779 1640.67 769.672 1650 758.166 1650L196.834 1650C185.328 1650 176 1640.67 176 1629.17Z" fill="#0FBAF3" fill-rule="evenodd"/><text fill="#FFFFFF" font-family="Trebuchet MS,Trebuchet MS_MSFontService,sans-serif" font-weight="400" font-size="31" transform="translate(198.975 1580)">Study English literature at University of <tspan x="54.3333" y="38">Cambodia (UC) on Nov 4</tspan><tspan font-size="21" x="395.5" y="29">th</tspan><tspan x="415.167" y="38">, 2019</tspan></text><path d="M796 2258C796 2248.06 804.059 2240 814 2240 823.941 2240 832 2248.06 832 2258 832 2267.94 823.941 2276 814 2276 804.059 2276 796 2267.94 796 2258Z" fill="#0FBAF3" fill-rule="evenodd"/><path d="M178 2218.33C178 2207.66 186.656 2199 197.334 2199L761.666 2199C772.344 2199 781 2207.66 781 2218.33L781 2295.67C781 2306.34 772.344 2315 761.666 2315L197.334 2315C186.656 2315 178 2306.34 178 2295.67Z" fill="#0FBAF3" fill-rule="evenodd"/><text fill="#FFFFFF" font-family="Trebuchet MS,Trebuchet MS_MSFontService,sans-serif" font-weight="400" font-size="31" transform="translate(285.823 2250)">Expected to first internship<tspan x="122.067" y="38">On Term 6</tspan></text><path d="M796 1810C796 1800.06 804.059 1792 814 1792 823.941 1792 832 1800.06 832 1810 832 1819.94 823.941 1828 814 1828 804.059 1828 796 1819.94 796 1810Z" fill="#0FBAF3" fill-rule="evenodd"/><path d="M176 1781.17C176 1770.58 184.581 1762 195.167 1762L761.833 1762C772.419 1762 781 1770.58 781 1781.17L781 1857.83C781 1868.42 772.419 1877 761.833 1877L195.167 1877C184.581 1877 176 1868.42 176 1857.83Z" fill="#0FBAF3" fill-rule="evenodd"/><text fill="#FFFFFF" font-family="Trebuchet MS,Trebuchet MS_MSFontService,sans-serif" font-weight="400" font-size="31" transform="translate(212.761 1812)">Joined a competition at <tspan x="345.6" y="0">Technovation</tspan><tspan x="-5.82001" y="38">girl, to learn and fail at Feb 20</tspan><tspan font-size="21" x="430.18" y="29">th</tspan><tspan x="449.847" y="38">, 2020</tspan></text><path d="M796 2036C796 2026.06 804.059 2018 814 2018 823.941 2018 832 2026.06 832 2036 832 2045.94 823.941 2054 814 2054 804.059 2054 796 2045.94 796 2036Z" fill="#0FBAF3" fill-rule="evenodd"/><path d="M175 1992.33C175 1981.1 184.104 1972 195.333 1972L757.667 1972C768.896 1972 778 1981.1 778 1992.33L778 2073.67C778 2084.9 768.896 2094 757.667 2094L195.333 2094C184.104 2094 175 2084.9 175 2073.67Z" fill="#0FBAF3" fill-rule="evenodd"/><text fill="#FFFFFF" font-family="Trebuchet MS,Trebuchet MS_MSFontService,sans-serif" font-weight="400" font-size="31" transform="translate(215.513 2026)">Build an Android App from Kudular<tspan x="493.067" y="0">to </tspan><tspan x="155.453" y="38">control a robot</tspan></text><path d="M796 2594C796 2584.06 804.059 2576 814 2576 823.941 2576 832 2584.06 832 2594 832 2603.94 823.941 2612 814 2612 804.059 2612 796 2603.94 796 2594Z" fill="#3583D8" fill-rule="evenodd"/><text fill="#3583D8" font-family="Trebuchet MS,Trebuchet MS_MSFontService,sans-serif" font-weight="400" font-size="31" transform="translate(719.601 2604)">2024</text><path d="M850 2574.5C850 2564.84 857.835 2557 867.5 2557L1435.5 2557C1445.16 2557 1453 2564.84 1453 2574.5L1453 2644.5C1453 2654.16 1445.16 2662 1435.5 2662L867.5 2662C857.835 2662 850 2654.16 850 2644.5Z" fill="#3583D8" fill-rule="evenodd"/><text fill="#FFFFFF" font-family="Trebuchet MS,Trebuchet MS_MSFontService,sans-serif" font-weight="400" font-size="31" transform="translate(865.15 2602)">Expected to Graduate from University of <tspan x="217.247" y="38">Cambodia</tspan><tspan fill="#0FBAF3" x="-16.9891" y="-333">2021</tspan></text><path d="M796 2482C796 2472.06 804.059 2464 814 2464 823.941 2464 832 2472.06 832 2482 832 2491.94 823.941 2500 814 2500 804.059 2500 796 2491.94 796 2482Z" fill="#0FBAF3" fill-rule="evenodd"/><path d="M175 2436.83C175 2426.98 182.984 2419 192.833 2419L760.167 2419C770.016 2419 778 2426.98 778 2436.83L778 2508.17C778 2518.02 770.016 2526 760.167 2526L192.833 2526C182.984 2526 175 2518.02 175 2508.17Z" fill="#0FBAF3" fill-rule="evenodd"/><text fill="#FFFFFF" font-family="Trebuchet MS,Trebuchet MS_MSFontService,sans-serif" font-weight="400" font-size="31" transform="translate(224.63 2484)">Expected to Graduate from NIPTICT<tspan fill="#0FBAF3" x="626.49" y="8">2023</tspan></text><path d="M798 2709C798 2699.06 806.059 2691 816 2691 825.941 2691 834 2699.06 834 2709 834 2718.94 825.941 2727 816 2727 806.059 2727 798 2718.94 798 2709Z" fill="#0FBAF3" fill-rule="evenodd"/><path d="M176 2673.67C176 2667.22 181.223 2662 187.667 2662L770.333 2662C776.777 2662 782 2667.22 782 2673.67L782 2720.33C782 2726.78 776.777 2732 770.333 2732L187.667 2732C181.223 2732 176 2726.78 176 2720.33Z" fill="#0FBAF3" fill-rule="evenodd"/><text fill="#FFFFFF" font-family="Trebuchet MS,Trebuchet MS_MSFontService,sans-serif" font-weight="400" font-size="31" transform="translate(231.691 2708)">-<tspan x="21" y="0">-</tspan><tspan x="42" y="0">-</tspan><tspan x="63" y="0">-</tspan><tspan x="84" y="0">-</tspan><tspan x="105" y="0">-</tspan><tspan x="126" y="0">-</tspan><tspan x="147" y="0">-</tspan><tspan x="168" y="0">-</tspan><tspan x="189" y="0">-</tspan><tspan x="210" y="0">-</tspan><tspan x="231" y="0">-</tspan><tspan x="252" y="0">-</tspan><tspan x="273" y="0">-</tspan><tspan x="294" y="0">-</tspan><tspan x="315" y="0">-</tspan><tspan x="336" y="0">-</tspan><tspan x="357" y="0">-</tspan><tspan x="378" y="0">-</tspan><tspan x="399" y="0">-</tspan><tspan x="420" y="0">-</tspan><tspan x="441" y="0">-</tspan><tspan x="462" y="0">-</tspan><tspan x="483" y="0">-</tspan><tspan fill="#0FBAF3" x="621.582" y="10">2025</tspan></text><path d="M798 916.5C798 906.835 806.059 899 816 899 825.941 899 834 906.835 834 916.5 834 926.165 825.941 934 816 934 806.059 934 798 926.165 798 916.5Z" fill="#0FBAF3" fill-rule="evenodd"/><text fill="#0FBAF3" font-family="Trebuchet MS,Trebuchet MS_MSFontService,sans-serif" font-weight="400" font-size="31" transform="translate(847.354 924)">2019</text><path d="M180 875.834C180 863.775 189.775 854 201.834 854L760.166 854C772.225 854 782 863.775 782 875.834L782 963.166C782 975.225 772.225 985 760.166 985L201.834 985C189.775 985 180 975.225 180 963.166Z" fill="#0FBAF3" fill-rule="evenodd"/><text fill="#FFFFFF" font-family="Trebuchet MS,Trebuchet MS_MSFontService,sans-serif" font-weight="400" font-size="31" transform="translate(248.401 912)">Became a volunteer for Songkran <tspan x="91" y="38">Sompoeupoun event</tspan></text><path d="M797 804C797 794.059 805.059 786 815 786 824.941 786 833 794.059 833 804 833 813.941 824.941 822 815 822 805.059 822 797 813.941 797 804Z" fill="#3583D8" fill-rule="evenodd"/><text fill="#3583D8" font-family="Trebuchet MS,Trebuchet MS_MSFontService,sans-serif" font-weight="400" font-size="31" transform="translate(720.454 814)">2018</text><path d="M851 772.5C851 763.94 857.94 757 866.5 757L1438.5 757C1447.06 757 1454 763.94 1454 772.5L1454 834.5C1454 843.06 1447.06 850 1438.5 850L866.5 850C857.94 850 851 843.06 851 834.5Z" fill="#3583D8" fill-rule="evenodd"/><text fill="#FFFFFF" font-family="Trebuchet MS,Trebuchet MS_MSFontService,sans-serif" font-weight="400" font-size="31" transform="translate(949.811 815)">Bought a guitar at 11<tspan font-size="21" x="296.5" y="-9">th</tspan><tspan x="325.667" y="0">grade</tspan></text><path d="M797 1026C797 1016.06 805.059 1008 815 1008 824.941 1008 833 1016.06 833 1026 833 1035.94 824.941 1044 815 1044 805.059 1044 797 1035.94 797 1026Z" fill="#3583D8" fill-rule="evenodd"/><path d="M851 1003.17C851 993.134 859.134 985 869.167 985L1435.83 985C1445.87 985 1454 993.134 1454 1003.17L1454 1075.83C1454 1085.87 1445.87 1094 1435.83 1094L869.167 1094C859.134 1094 851 1085.87 851 1075.83Z" fill="#3583D8" fill-rule="evenodd"/><text fill="#FFFFFF" font-family="Trebuchet MS,Trebuchet MS_MSFontService,sans-serif" font-weight="400" font-size="31" transform="translate(866.768 1032)">Was the first time on stage as a guitarist<tspan x="154.573" y="38">On April 10</tspan><tspan font-size="21" x="309.513" y="29">th</tspan><tspan x="329.18" y="38">, 2019</tspan></text><path d="M798 691C798 681.059 806.059 673 816 673 825.941 673 834 681.059 834 691 834 700.941 825.941 709 816 709 806.059 709 798 700.941 798 691Z" fill="#0FBAF3" fill-rule="evenodd"/><text fill="#0FBAF3" font-family="Trebuchet MS,Trebuchet MS_MSFontService,sans-serif" font-weight="400" font-size="31" transform="translate(846.548 699)">2017</text><path d="M180 644.334C180 634.761 187.761 627 197.334 627L764.666 627C774.239 627 782 634.761 782 644.334L782 713.666C782 723.239 774.239 731 764.666 731L197.334 731C187.761 731 180 723.239 180 713.666Z" fill="#0FBAF3" fill-rule="evenodd"/><text fill="#FFFFFF" font-family="Trebuchet MS,Trebuchet MS_MSFontService,sans-serif" font-weight="400" font-size="31" transform="translate(225.401 690)">Bought an Ukulele on May 25<tspan font-size="21" x="405.333" y="-9">th</tspan><tspan x="425" y="0">, 2017</tspan><tspan fill="#0FBAF3" x="624.912" y="1131">2020</tspan><tspan fill="#3583D8" x="492.911" y="1691">2022</tspan></text><path d="M796 2816C796 2806.06 804.059 2798 814 2798 823.941 2798 832 2806.06 832 2816 832 2825.94 823.941 2834 814 2834 804.059 2834 796 2825.94 796 2816Z" fill="#3583D8" fill-rule="evenodd"/><text fill="#3583D8" font-family="Trebuchet MS,Trebuchet MS_MSFontService,sans-serif" font-weight="400" font-size="31" transform="translate(719.466 2826)">2026</text><path d="M850 2790.67C850 2784.22 855.223 2779 861.667 2779L1445.33 2779C1451.78 2779 1457 2784.22 1457 2790.67L1457 2837.33C1457 2843.78 1451.78 2849 1445.33 2849L861.667 2849C855.223 2849 850 2843.78 850 2837.33Z" fill="#3583D8" fill-rule="evenodd"/><text fill="#FFFFFF" font-family="Trebuchet MS,Trebuchet MS_MSFontService,sans-serif" font-weight="400" font-size="31" transform="translate(906.185 2825)">-<tspan x="21" y="0">-</tspan><tspan x="42" y="0">-</tspan><tspan x="63" y="0">-</tspan><tspan x="84" y="0">-</tspan><tspan x="105" y="0">-</tspan><tspan x="126" y="0">-</tspan><tspan x="147" y="0">-</tspan><tspan x="168" y="0">-</tspan><tspan x="189" y="0">-</tspan><tspan x="210" y="0">-</tspan><tspan x="231" y="0">-</tspan><tspan x="252" y="0">-</tspan><tspan x="273" y="0">-</tspan><tspan x="294" y="0">-</tspan><tspan x="315" y="0">-</tspan><tspan x="336" y="0">-</tspan><tspan x="357" y="0">-</tspan><tspan x="378" y="0">-</tspan><tspan x="399" y="0">-</tspan><tspan x="420" y="0">-</tspan><tspan x="441" y="0">-</tspan><tspan x="462" y="0">-</tspan><tspan x="483" y="0">-</tspan></text></g></svg>