<svg width="1632" height="3360" xmlns="http://www.w3.org/2000/svg" xmlns:xlink="http://www.w3.org/1999/xlink" overflow="hidden"><defs><clipPath id="clip0"><path d="M0 0 1632 0 1632 3360 0 3360Z" fill-rule="evenodd" clip-rule="evenodd"/></clipPath></defs><g clip-path="url(#clip0)"><rect x="0" y="0" width="1632" height="3360" fill="#FFFFFF"/><path d="M3663.1 1309.34 932.311 4296.92-901.024 2621.16 1829.77-366.415Z" fill="#000000" fill-rule="evenodd" fill-opacity="0.0196078"/><path d="M814 114 814.715 3156.88" stroke="#ED7D31" stroke-width="8" stroke-miterlimit="8" stroke-dasharray="32 24" fill="none" fill-rule="evenodd"/><path d="M796 242C796 232.059 804.059 224 814 224 823.941 224 832 232.059 832 242 832 251.941 823.941 260 814 260 804.059 260 796 251.941 796 242Z" fill="#0FBAF3" fill-rule="evenodd"/><text fill="#0FBAF3" font-family="Trebuchet MS,Trebuchet MS_MSFontService,sans-serif" font-weight="400" font-size="31" transform="translate(842.242 249)">2000</text><path d="M178 168.167C178 152.611 190.611 140 206.167 140L752.833 140C768.389 140 781 152.611 781 168.167L781 280.833C781 296.389 768.389 309 752.833 309L206.167 309C190.611 309 178 296.389 178 280.833Z" fill="#0FBAF3" fill-rule="evenodd"/><text fill="#FFFFFF" font-family="Trebuchet MS,Trebuchet MS_MSFontService,sans-serif" font-weight="400" font-size="31" transform="translate(199.627 198)">Choem<tspan x="104.767" y="0">Thea was born on Jan 25</tspan><tspan font-size="21" x="453.1" y="-9">th</tspan><tspan x="472.767" y="0">, 2000</tspan><tspan x="78.4533" y="38">Father name is </tspan><tspan x="297.453" y="38">Koem</tspan><tspan x="383.973" y="38">Cheng,</tspan><tspan x="86.2133" y="76">Mother name is </tspan><tspan x="311.213" y="76">Nou</tspan><tspan x="374.713" y="76">Sokhon</tspan></text><path d="M796 355C796 345.059 804.059 337 814 337 823.941 337 832 345.059 832 355 832 364.941 823.941 373 814 373 804.059 373 796 364.941 796 355Z" fill="#3583D8" fill-rule="evenodd"/><text fill="#3583D8" font-family="Trebuchet MS,Trebuchet MS_MSFontService,sans-serif" font-weight="400" font-size="31" transform="translate(719.96 365)">2007</text><path d="M850 298.001C850 284.745 860.745 274 874.001 274L1429 274C1442.25 274 1453 284.745 1453 298.001L1453 393.999C1453 407.255 1442.25 418 1429 418L874.001 418C860.745 418 850 407.255 850 393.999Z" fill="#3583D8" fill-rule="evenodd"/><text fill="#FFFFFF" font-family="Trebuchet MS,Trebuchet MS_MSFontService,sans-serif" font-weight="400" font-size="31" transform="translate(872.092 339)">Enroll Koh Teav Primary School, and fail <tspan x="49.3734" y="38">at 1</tspan><tspan font-size="21" x="104.373" y="29">st</tspan><tspan x="130.707" y="38">grade because of too small</tspan></text><path d="M796 454C796 444.059 804.059 436 814 436 823.941 436 832 444.059 832 454 832 463.941 823.941 472 814 472 804.059 472 796 463.941 796 454Z" fill="#0FBAF3" fill-rule="evenodd"/><text fill="#0FBAF3" font-family="Trebuchet MS,Trebuchet MS_MSFontService,sans-serif" font-weight="400" font-size="31" transform="translate(844.395 462)">2013</text><path d="M179 410.667C179 397.044 190.044 386 203.667 386L756.333 386C769.956 386 781 397.044 781 410.667L781 509.333C781 522.956 769.956 534 756.333 534L203.667 534C190.044 534 179 522.956 179 509.333Z" fill="#0FBAF3" fill-rule="evenodd"/><text fill="#FFFFFF" font-family="Trebuchet MS,Trebuchet MS_MSFontService,sans-serif" font-weight="400" font-size="31" transform="translate(234.472 433)">Enroll secondary school at Hun Sen <tspan x="-9.33333" y="38">Sompoeupoun High School at Kandal </tspan><tspan x="9" y="76">province and studied from 7</tspan><tspan font-size="21" x="405.333" y="67">th</tspan><tspan x="425" y="76">–</tspan><tspan x="446" y="76">9</tspan><tspan font-size="21" x="462.5" y="67">th</tspan></text><path d="M796 579C796 569.059 804.059 561 814 561 823.941 561 832 569.059 832 579 832 588.941 823.941 597 814 597 804.059 597 796 588.941 796 579Z" fill="#3583D8" fill-rule="evenodd"/><text fill="#3583D8" font-family="Trebuchet MS,Trebuchet MS_MSFontService,sans-serif" font-weight="400" font-size="31" transform="translate(719.466 590)">2016</text><path d="M850 550.834C850 540.984 857.984 533 867.833 533L1435.17 533C1445.02 533 1453 540.984 1453 550.834L1453 622.166C1453 632.016 1445.02 640 1435.17 640L867.833 640C857.984 640 850 632.016 850 622.166Z" fill="#3583D8" fill-rule="evenodd"/><text fill="#FFFFFF" font-family="Trebuchet MS,Trebuchet MS_MSFontService,sans-serif" font-weight="400" font-size="31" transform="translate(937.469 579)">Start new class at high school.<tspan x="47.7534" y="38">Studied from 10</tspan><tspan font-size="21" x="272.087" y="29">th</tspan><tspan x="301.253" y="38">grade</tspan></text><path d="M797 1251C797 1241.06 805.059 1233 815 1233 824.941 1233 833 1241.06 833 1251 833 1260.94 824.941 1269 815 1269 805.059 1269 797 1260.94 797 1251Z" fill="#3583D8" fill-rule="evenodd"/><path d="M851 1221.33C851 1207.89 861.894 1197 875.333 1197L1428.67 1197C1442.11 1197 1453 1207.89 1453 1221.33L1453 1318.67C1453 1332.11 1442.11 1343 1428.67 1343L875.333 1343C861.894 1343 851 1332.11 851 1318.67Z" fill="#3583D8" fill-rule="evenodd"/><text fill="#FFFFFF" font-family="Trebuchet MS,Trebuchet MS_MSFontService,sans-serif" font-weight="400" font-size="31" transform="translate(921.778 1244)">BacII examination at Chung Leap <tspan x="115.113" y="38">On Aug 8</tspan><tspan font-size="21" x="238.553" y="29">th</tspan><tspan x="258.22" y="38">, 2019</tspan><tspan x="84.3333" y="76">Got grade C </tspan>–<tspan x="282" y="76">97.204</tspan></text><path d="M797 1475C797 1465.06 805.059 1457 815 1457 824.941 1457 833 1465.06 833 1475 833 1484.94 824.941 1493 815 1493 805.059 1493 797 1484.94 797 1475Z" fill="#3583D8" fill-rule="evenodd"/><path d="M851 1434.83C851 1420.57 862.566 1409 876.834 1409L1428.17 1409C1442.43 1409 1454 1420.57 1454 1434.83L1454 1538.17C1454 1552.43 1442.43 1564 1428.17 1564L876.834 1564C862.566 1564 851 1552.43 851 1538.17Z" fill="#3583D8" fill-rule="evenodd"/><text fill="#FFFFFF" font-family="Trebuchet MS,Trebuchet MS_MSFontService,sans-serif" font-weight="400" font-size="31" transform="translate(898.728 1460)">Study Computer Science at National <tspan x="9.5" y="38">Institute of Post, Telecom, and ICT </tspan><tspan x="63.8333" y="76">(NIPTICT) at Oct 28</tspan><tspan font-size="21" x="336.333" y="67">th</tspan><tspan x="356" y="76">, 2019</tspan></text><path d="M797 1699C797 1689.06 805.059 1681 815 1681 824.941 1681 833 1689.06 833 1699 833 1708.94 824.941 1717 815 1717 805.059 1717 797 1708.94 797 1699Z" fill="#3583D8" fill-rule="evenodd"/><path d="M851 1670.5C851 1659.73 859.731 1651 870.501 1651L1434.5 1651C1445.27 1651 1454 1659.73 1454 1670.5L1454 1748.5C1454 1759.27 1445.27 1768 1434.5 1768L870.501 1768C859.731 1768 851 1759.27 851 1748.5Z" fill="#3583D8" fill-rule="evenodd"/><text fill="#FFFFFF" font-family="Trebuchet MS,Trebuchet MS_MSFontService,sans-serif" font-weight="400" font-size="31" transform="translate(868.488 1702)">Second time on stage with <tspan x="381.267" y="0">Tonghor</tspan><tspan x="500.867" y="0">Hout</tspan><tspan x="24.02" y="38">as a guitarist on Christmas Day at UC</tspan></text><path d="M796 1923C796 1913.06 804.059 1905 814 1905 823.941 1905 832 1913.06 832 1923 832 1932.94 823.941 1941 814 1941 804.059 1941 796 1932.94 796 1923Z" fill="#3583D8" fill-rule="evenodd"/><path d="M850 1876.17C850 1864.48 859.477 1855 871.167 1855L1431.83 1855C1443.52 1855 1453 1864.48 1453 1876.17L1453 1960.83C1453 1972.52 1443.52 1982 1431.83 1982L871.167 1982C859.477 1982 850 1972.52 850 1960.83Z" fill="#3583D8" fill-rule="evenodd"/><text fill="#FFFFFF" font-family="Trebuchet MS,Trebuchet MS_MSFontService,sans-serif" font-weight="400" font-size="31" transform="translate(897.862 1911)">Joined <tspan x="102.167" y="0">Erobot</tspan><tspan x="204.333" y="0">team which made me </tspan><tspan x="21.1667" y="38">realize lots of people and things.</tspan></text><path d="M797 2147C797 2137.06 805.059 2129 815 2129 824.941 2129 833 2137.06 833 2147 833 2156.94 824.941 2165 815 2165 805.059 2165 797 2156.94 797 2147Z" fill="#3583D8" fill-rule="evenodd"/><path d="M851 2106.5C851 2095.18 860.178 2086 871.501 2086L1432.5 2086C1443.82 2086 1453 2095.18 1453 2106.5L1453 2188.5C1453 2199.82 1443.82 2209 1432.5 2209L871.501 2209C860.178 2209 851 2199.82 851 2188.5Z" fill="#3583D8" fill-rule="evenodd"/><text fill="#FFFFFF" font-family="Trebuchet MS,Trebuchet MS_MSFontService,sans-serif" font-weight="400" font-size="31" transform="translate(874.2 2140)">Build a website and hosted with Netlify <tspan x="158.033" y="38">on Apr 24</tspan><tspan font-size="21" x="290.473" y="29">th</tspan><tspan x="310.14" y="38">, 2020</tspan></text><path d="M797 2596C797 2586.06 805.059 2578 815 2578 824.941 2578 833 2586.06 833 2596 833 2605.94 824.941 2614 815 2614 805.059 2614 797 2605.94 797 2596Z" fill="#3583D8" fill-rule="evenodd"/><path d="M851 2564.33C851 2553.66 859.656 2545 870.334 2545L1434.67 2545C1445.34 2545 1454 2553.66 1454 2564.33L1454 2641.67C1454 2652.34 1445.34 2661 1434.67 2661L870.334 2661C859.656 2661 851 2652.34 851 2641.67Z" fill="#3583D8" fill-rule="evenodd"/><text fill="#FFFFFF" font-family="Trebuchet MS,Trebuchet MS_MSFontService,sans-serif" font-weight="400" font-size="31" transform="translate(939.374 2595)">Expected to second internship<tspan x="133.313" y="38">On Term 10</tspan></text><path d="M796 1137C796 1127.06 804.059 1119 814 1119 823.941 1119 832 1127.06 832 1137 832 1146.94 823.941 1155 814 1155 804.059 1155 796 1146.94 796 1137Z" fill="#0FBAF3" fill-rule="evenodd"/><path d="M178 1116.33C178 1105.66 186.656 1097 197.334 1097L761.666 1097C772.344 1097 781 1105.66 781 1116.33L781 1193.67C781 1204.34 772.344 1213 761.666 1213L197.334 1213C186.656 1213 178 1204.34 178 1193.67Z" fill="#0FBAF3" fill-rule="evenodd"/><text fill="#FFFFFF" font-family="Trebuchet MS,Trebuchet MS_MSFontService,sans-serif" font-weight="400" font-size="31" transform="translate(236.51 1147)">In relationship with Hong Seavleng <tspan x="117.42" y="38">On May 18</tspan><tspan font-size="21" x="261.92" y="29">th</tspan><tspan x="281.587" y="38">, 2019</tspan></text><path d="M796 1361C796 1351.06 804.059 1343 814 1343 823.941 1343 832 1351.06 832 1361 832 1370.94 823.941 1379 814 1379 804.059 1379 796 1370.94 796 1361Z" fill="#0FBAF3" fill-rule="evenodd"/><path d="M176 1313.83C176 1299.57 187.566 1288 201.834 1288L755.166 1288C769.434 1288 781 1299.57 781 1313.83L781 1417.17C781 1431.43 769.434 1443 755.166 1443L201.834 1443C187.566 1443 176 1431.43 176 1417.17Z" fill="#0FBAF3" fill-rule="evenodd"/><text fill="#FFFFFF" font-family="Trebuchet MS,Trebuchet MS_MSFontService,sans-serif" font-weight="400" font-size="31" transform="translate(221.358 1339)">Got scholarship from examination at <tspan x="-17.1333" y="38">NIPTICT on Oct 8</tspan><tspan font-size="21" x="220.3" y="29">th</tspan><tspan x="239.967" y="38">, 2019 and UC at the </tspan><tspan x="191.253" y="76">same day</tspan></text><path d="M795 1586C795 1576.06 803.283 1568 813.5 1568 823.717 1568 832 1576.06 832 1586 832 1595.94 823.717 1604 813.5 1604 803.283 1604 795 1595.94 795 1586Z" fill="#0FBAF3" fill-rule="evenodd"/><path d="M176 1545.83C176 1534.33 185.328 1525 196.834 1525L758.166 1525C769.672 1525 779 1534.33 779 1545.83L779 1629.17C779 1640.67 769.672 1650 758.166 1650L196.834 1650C185.328 1650 176 1640.67 176 1629.17Z" fill="#0FBAF3" fill-rule="evenodd"/><text fill="#FFFFFF" font-family="Trebuchet MS,Trebuchet MS_MSFontService,sans-serif" font-weight="400" font-size="31" transform="translate(198.975 1580)">Study English literature at University of <tspan x="54.3333" y="38">Cambodia (UC) on Nov 4</tspan><tspan font-size="21" x="395.5" y="29">th</tspan><tspan x="415.167" y="38">, 2019</tspan></text><path d="M796 2482C796 2472.06 804.059 2464 814 2464 823.941 2464 832 2472.06 832 2482 832 2491.94 823.941 2500 814 2500 804.059 2500 796 2491.94 796 2482Z" fill="#0FBAF3" fill-rule="evenodd"/><path d="M178 2442.5C178 2431.73 186.731 2423 197.501 2423L761.499 2423C772.269 2423 781 2431.73 781 2442.5L781 2520.5C781 2531.27 772.269 2540 761.499 2540L197.501 2540C186.731 2540 178 2531.27 178 2520.5Z" fill="#0FBAF3" fill-rule="evenodd"/><text fill="#FFFFFF" font-family="Trebuchet MS,Trebuchet MS_MSFontService,sans-serif" font-weight="400" font-size="31" transform="translate(285.823 2474)">Expected to first internship<tspan x="122.067" y="38">On Term 6</tspan></text><path d="M796 1810C796 1800.06 804.059 1792 814 1792 823.941 1792 832 1800.06 832 1810 832 1819.94 823.941 1828 814 1828 804.059 1828 796 1819.94 796 1810Z" fill="#0FBAF3" fill-rule="evenodd"/><path d="M176 1781.17C176 1770.58 184.581 1762 195.167 1762L761.833 1762C772.419 1762 781 1770.58 781 1781.17L781 1857.83C781 1868.42 772.419 1877 761.833 1877L195.167 1877C184.581 1877 176 1868.42 176 1857.83Z" fill="#0FBAF3" fill-rule="evenodd"/><text fill="#FFFFFF" font-family="Trebuchet MS,Trebuchet MS_MSFontService,sans-serif" font-weight="400" font-size="31" transform="translate(212.761 1812)">Joined a competition at <tspan x="345.6" y="0">Technovation</tspan><tspan x="-5.82001" y="38">girl, to learn and fail at Feb 20</tspan><tspan font-size="21" x="430.18" y="29">th</tspan><tspan x="449.847" y="38">, 2020</tspan></text><path d="M796 2036C796 2026.06 804.059 2018 814 2018 823.941 2018 832 2026.06 832 2036 832 2045.94 823.941 2054 814 2054 804.059 2054 796 2045.94 796 2036Z" fill="#0FBAF3" fill-rule="evenodd"/><path d="M175 1992.33C175 1981.1 184.104 1972 195.333 1972L757.667 1972C768.896 1972 778 1981.1 778 1992.33L778 2073.67C778 2084.9 768.896 2094 757.667 2094L195.333 2094C184.104 2094 175 2084.9 175 2073.67Z" fill="#0FBAF3" fill-rule="evenodd"/><text fill="#FFFFFF" font-family="Trebuchet MS,Trebuchet MS_MSFontService,sans-serif" font-weight="400" font-size="31" transform="translate(215.513 2026)">Build an Android App from Kudular<tspan x="493.067" y="0">to </tspan><tspan x="155.453" y="38">control a robot</tspan></text><path d="M796 2818C796 2808.06 804.059 2800 814 2800 823.941 2800 832 2808.06 832 2818 832 2827.94 823.941 2836 814 2836 804.059 2836 796 2827.94 796 2818Z" fill="#3583D8" fill-rule="evenodd"/><text fill="#3583D8" font-family="Trebuchet MS,Trebuchet MS_MSFontService,sans-serif" font-weight="400" font-size="31" transform="translate(719.601 2829)">2024</text><path d="M850 2798.5C850 2788.84 857.835 2781 867.5 2781L1435.5 2781C1445.16 2781 1453 2788.84 1453 2798.5L1453 2868.5C1453 2878.16 1445.16 2886 1435.5 2886L867.5 2886C857.835 2886 850 2878.16 850 2868.5Z" fill="#3583D8" fill-rule="evenodd"/><text fill="#FFFFFF" font-family="Trebuchet MS,Trebuchet MS_MSFontService,sans-serif" font-weight="400" font-size="31" transform="translate(865.15 2826)">Expected to Graduate from University of <tspan x="217.247" y="38">Cambodia</tspan><tspan fill="#0FBAF3" x="-16.9891" y="-332">2021</tspan></text><path d="M796 2707C796 2697.06 804.059 2689 814 2689 823.941 2689 832 2697.06 832 2707 832 2716.94 823.941 2725 814 2725 804.059 2725 796 2716.94 796 2707Z" fill="#0FBAF3" fill-rule="evenodd"/><path d="M175 2660.83C175 2650.98 182.984 2643 192.833 2643L760.167 2643C770.016 2643 778 2650.98 778 2660.83L778 2732.17C778 2742.02 770.016 2750 760.167 2750L192.833 2750C182.984 2750 175 2742.02 175 2732.17Z" fill="#0FBAF3" fill-rule="evenodd"/><text fill="#FFFFFF" font-family="Trebuchet MS,Trebuchet MS_MSFontService,sans-serif" font-weight="400" font-size="31" transform="translate(224.63 2708)">Expected to Graduate from NIPTICT<tspan fill="#0FBAF3" x="626.49" y="8">2023</tspan></text><path d="M798 2933C798 2923.06 806.059 2915 816 2915 825.941 2915 834 2923.06 834 2933 834 2942.94 825.941 2951 816 2951 806.059 2951 798 2942.94 798 2933Z" fill="#0FBAF3" fill-rule="evenodd"/><path d="M176 2897.67C176 2891.22 181.223 2886 187.667 2886L770.333 2886C776.777 2886 782 2891.22 782 2897.67L782 2944.33C782 2950.78 776.777 2956 770.333 2956L187.667 2956C181.223 2956 176 2950.78 176 2944.33Z" fill="#0FBAF3" fill-rule="evenodd"/><text fill="#FFFFFF" font-family="Trebuchet MS,Trebuchet MS_MSFontService,sans-serif" font-weight="400" font-size="31" transform="translate(231.691 2933)">-<tspan x="21" y="0">-</tspan><tspan x="42" y="0">-</tspan><tspan x="63" y="0">-</tspan><tspan x="84" y="0">-</tspan><tspan x="105" y="0">-</tspan><tspan x="126" y="0">-</tspan><tspan x="147" y="0">-</tspan><tspan x="168" y="0">-</tspan><tspan x="189" y="0">-</tspan><tspan x="210" y="0">-</tspan><tspan x="231" y="0">-</tspan><tspan x="252" y="0">-</tspan><tspan x="273" y="0">-</tspan><tspan x="294" y="0">-</tspan><tspan x="315" y="0">-</tspan><tspan x="336" y="0">-</tspan><tspan x="357" y="0">-</tspan><tspan x="378" y="0">-</tspan><tspan x="399" y="0">-</tspan><tspan x="420" y="0">-</tspan><tspan x="441" y="0">-</tspan><tspan x="462" y="0">-</tspan><tspan x="483" y="0">-</tspan><tspan fill="#0FBAF3" x="621.582" y="10">2025</tspan></text><path d="M798 916.5C798 906.835 806.059 899 816 899 825.941 899 834 906.835 834 916.5 834 926.165 825.941 934 816 934 806.059 934 798 926.165 798 916.5Z" fill="#0FBAF3" fill-rule="evenodd"/><text fill="#0FBAF3" font-family="Trebuchet MS,Trebuchet MS_MSFontService,sans-serif" font-weight="400" font-size="31" transform="translate(847.354 924)">2019</text><path d="M180 875.834C180 863.775 189.775 854 201.834 854L760.166 854C772.225 854 782 863.775 782 875.834L782 963.166C782 975.225 772.225 985 760.166 985L201.834 985C189.775 985 180 975.225 180 963.166Z" fill="#0FBAF3" fill-rule="evenodd"/><text fill="#FFFFFF" font-family="Trebuchet MS,Trebuchet MS_MSFontService,sans-serif" font-weight="400" font-size="31" transform="translate(248.401 912)">Became a volunteer for Songkran <tspan x="91" y="38">Sompoeupoun event</tspan></text><path d="M797 804C797 794.059 805.059 786 815 786 824.941 786 833 794.059 833 804 833 813.941 824.941 822 815 822 805.059 822 797 813.941 797 804Z" fill="#3583D8" fill-rule="evenodd"/><text fill="#3583D8" font-family="Trebuchet MS,Trebuchet MS_MSFontService,sans-serif" font-weight="400" font-size="31" transform="translate(720.454 814)">2018</text><path d="M851 772.5C851 763.94 857.94 757 866.5 757L1438.5 757C1447.06 757 1454 763.94 1454 772.5L1454 834.5C1454 843.06 1447.06 850 1438.5 850L866.5 850C857.94 850 851 843.06 851 834.5Z" fill="#3583D8" fill-rule="evenodd"/><text fill="#FFFFFF" font-family="Trebuchet MS,Trebuchet MS_MSFontService,sans-serif" font-weight="400" font-size="31" transform="translate(949.811 815)">Bought a guitar at 11<tspan font-size="21" x="296.5" y="-9">th</tspan><tspan x="325.667" y="0">grade</tspan></text><path d="M797 1026C797 1016.06 805.059 1008 815 1008 824.941 1008 833 1016.06 833 1026 833 1035.94 824.941 1044 815 1044 805.059 1044 797 1035.94 797 1026Z" fill="#3583D8" fill-rule="evenodd"/><path d="M851 1003.17C851 993.134 859.134 985 869.167 985L1435.83 985C1445.87 985 1454 993.134 1454 1003.17L1454 1075.83C1454 1085.87 1445.87 1094 1435.83 1094L869.167 1094C859.134 1094 851 1085.87 851 1075.83Z" fill="#3583D8" fill-rule="evenodd"/><text fill="#FFFFFF" font-family="Trebuchet MS,Trebuchet MS_MSFontService,sans-serif" font-weight="400" font-size="31" transform="translate(866.768 1032)">Was the first time on stage as a guitarist<tspan x="154.573" y="38">On April 10</tspan><tspan font-size="21" x="309.513" y="29">th</tspan><tspan x="329.18" y="38">, 2019</tspan></text><path d="M798 691C798 681.059 806.059 673 816 673 825.941 673 834 681.059 834 691 834 700.941 825.941 709 816 709 806.059 709 798 700.941 798 691Z" fill="#0FBAF3" fill-rule="evenodd"/><text fill="#0FBAF3" font-family="Trebuchet MS,Trebuchet MS_MSFontService,sans-serif" font-weight="400" font-size="31" transform="translate(846.548 699)">2017</text><path d="M180 644.334C180 634.761 187.761 627 197.334 627L764.666 627C774.239 627 782 634.761 782 644.334L782 713.666C782 723.239 774.239 731 764.666 731L197.334 731C187.761 731 180 723.239 180 713.666Z" fill="#0FBAF3" fill-rule="evenodd"/><text fill="#FFFFFF" font-family="Trebuchet MS,Trebuchet MS_MSFontService,sans-serif" font-weight="400" font-size="31" transform="translate(225.401 690)">Bought an Ukulele on May 25<tspan font-size="21" x="405.333" y="-9">th</tspan><tspan x="425" y="0">, 2017</tspan><tspan fill="#0FBAF3" x="624.912" y="1131">2020</tspan><tspan fill="#3583D8" x="492.911" y="1916">2022</tspan></text><path d="M796 3040C796 3030.06 804.059 3022 814 3022 823.941 3022 832 3030.06 832 3040 832 3049.94 823.941 3058 814 3058 804.059 3058 796 3049.94 796 3040Z" fill="#3583D8" fill-rule="evenodd"/><text fill="#3583D8" font-family="Trebuchet MS,Trebuchet MS_MSFontService,sans-serif" font-weight="400" font-size="31" transform="translate(719.466 3051)">2026</text><path d="M850 3014.67C850 3008.22 855.223 3003 861.667 3003L1445.33 3003C1451.78 3003 1457 3008.22 1457 3014.67L1457 3061.33C1457 3067.78 1451.78 3073 1445.33 3073L861.667 3073C855.223 3073 850 3067.78 850 3061.33Z" fill="#3583D8" fill-rule="evenodd"/><text fill="#FFFFFF" font-family="Trebuchet MS,Trebuchet MS_MSFontService,sans-serif" font-weight="400" font-size="31" transform="translate(906.185 3049)">-<tspan x="21" y="0">-</tspan><tspan x="42" y="0">-</tspan><tspan x="63" y="0">-</tspan><tspan x="84" y="0">-</tspan><tspan x="105" y="0">-</tspan><tspan x="126" y="0">-</tspan><tspan x="147" y="0">-</tspan><tspan x="168" y="0">-</tspan><tspan x="189" y="0">-</tspan><tspan x="210" y="0">-</tspan><tspan x="231" y="0">-</tspan><tspan x="252" y="0">-</tspan><tspan x="273" y="0">-</tspan><tspan x="294" y="0">-</tspan><tspan x="315" y="0">-</tspan><tspan x="336" y="0">-</tspan><tspan x="357" y="0">-</tspan><tspan x="378" y="0">-</tspan><tspan x="399" y="0">-</tspan><tspan x="420" y="0">-</tspan><tspan x="441" y="0">-</tspan><tspan x="462" y="0">-</tspan><tspan x="483" y="0">-</tspan></text><path d="M798 2370C798 2360.06 806.059 2352 816 2352 825.941 2352 834 2360.06 834 2370 834 2379.94 825.941 2388 816 2388 806.059 2388 798 2379.94 798 2370Z" fill="#3583D8" fill-rule="evenodd"/><path d="M852 2344.67C852 2338.22 857.223 2333 863.667 2333L1447.33 2333C1453.78 2333 1459 2338.22 1459 2344.67L1459 2391.33C1459 2397.78 1453.78 2403 1447.33 2403L863.667 2403C857.223 2403 852 2397.78 852 2391.33Z" fill="#3583D8" fill-rule="evenodd"/><text fill="#FFFFFF" font-family="Trebuchet MS,Trebuchet MS_MSFontService,sans-serif" font-weight="400" font-size="31" transform="translate(908.291 2380)">-<tspan x="21" y="0">-</tspan><tspan x="42" y="0">-</tspan><tspan x="63" y="0">-</tspan><tspan x="84" y="0">-</tspan><tspan x="105" y="0">-</tspan><tspan x="126" y="0">-</tspan><tspan x="147" y="0">-</tspan><tspan x="168" y="0">-</tspan><tspan x="189" y="0">-</tspan><tspan x="210" y="0">-</tspan><tspan x="231" y="0">-</tspan><tspan x="252" y="0">-</tspan><tspan x="273" y="0">-</tspan><tspan x="294" y="0">-</tspan><tspan x="315" y="0">-</tspan><tspan x="336" y="0">-</tspan><tspan x="357" y="0">-</tspan><tspan x="378" y="0">-</tspan><tspan x="399" y="0">-</tspan><tspan x="420" y="0">-</tspan><tspan x="441" y="0">-</tspan><tspan x="462" y="0">-</tspan><tspan x="483" y="0">-</tspan></text><path d="M798 2259C798 2249.06 806.059 2241 816 2241 825.941 2241 834 2249.06 834 2259 834 2268.94 825.941 2277 816 2277 806.059 2277 798 2268.94 798 2259Z" fill="#0FBAF3" fill-rule="evenodd"/><path d="M176 2223.67C176 2217.22 181.223 2212 187.667 2212L770.333 2212C776.777 2212 782 2217.22 782 2223.67L782 2270.33C782 2276.78 776.777 2282 770.333 2282L187.667 2282C181.223 2282 176 2276.78 176 2270.33Z" fill="#0FBAF3" fill-rule="evenodd"/><text fill="#FFFFFF" font-family="Trebuchet MS,Trebuchet MS_MSFontService,sans-serif" font-weight="400" font-size="31" transform="translate(231.691 2258)">-<tspan x="21" y="0">-</tspan><tspan x="42" y="0">-</tspan><tspan x="63" y="0">-</tspan><tspan x="84" y="0">-</tspan><tspan x="105" y="0">-</tspan><tspan x="126" y="0">-</tspan><tspan x="147" y="0">-</tspan><tspan x="168" y="0">-</tspan><tspan x="189" y="0">-</tspan><tspan x="210" y="0">-</tspan><tspan x="231" y="0">-</tspan><tspan x="252" y="0">-</tspan><tspan x="273" y="0">-</tspan><tspan x="294" y="0">-</tspan><tspan x="315" y="0">-</tspan><tspan x="336" y="0">-</tspan><tspan x="357" y="0">-</tspan><tspan x="378" y="0">-</tspan><tspan x="399" y="0">-</tspan><tspan x="420" y="0">-</tspan><tspan x="441" y="0">-</tspan><tspan x="462" y="0">-</tspan><tspan x="483" y="0">-</tspan></text></g></svg>