<svg width="1632" height="2592" xmlns="http://www.w3.org/2000/svg" xmlns:xlink="http://www.w3.org/1999/xlink" overflow="hidden"><defs><clipPath id="clip0"><path d="M0 0 1632 0 1632 2592 0 2592Z" fill-rule="evenodd" clip-rule="evenodd"/></clipPath></defs><g clip-path="url(#clip0)"><rect x="0" y="0" width="1632" height="2592" fill="#FFFFFF"/><path d="M2245.05-85.4275-485.741 2902.15-655.551 2746.93 2075.24-240.642Z" fill="#000000" fill-rule="evenodd" fill-opacity="0.0196078"/><path d="M1979.57-467.973-751.228 2519.6-921.024 2364.4 1809.77-623.176Z" fill="#000000" fill-rule="evenodd" fill-opacity="0.0196078"/><path d="M814 114 814 2344.69" stroke="#ED7D31" stroke-width="8" stroke-miterlimit="8" stroke-dasharray="32 24" fill="none" fill-rule="evenodd"/><path d="M796 242C796 232.059 804.059 224 814 224 823.941 224 832 232.059 832 242 832 251.941 823.941 260 814 260 804.059 260 796 251.941 796 242Z" fill="#0FBAF3" fill-rule="evenodd"/><text fill="#0FBAF3" font-family="Trebuchet MS,Trebuchet MS_MSFontService,sans-serif" font-weight="400" font-size="31" transform="translate(842.242 249)">2000</text><path d="M178 177.334C178 161.686 190.686 149 206.334 149L752.666 149C768.314 149 781 161.686 781 177.334L781 290.666C781 306.314 768.314 319 752.666 319L206.334 319C190.686 319 178 306.314 178 290.666Z" fill="#0FBAF3" fill-rule="evenodd"/><text fill="#FFFFFF" font-family="Trebuchet MS,Trebuchet MS_MSFontService,sans-serif" font-weight="400" font-size="31" transform="translate(199.627 207)">Choem<tspan x="104.767" y="0">Thea was born on Jan 25</tspan><tspan font-size="21" x="453.1" y="-9">th</tspan><tspan x="472.767" y="0">, 2000</tspan><tspan x="78.4533" y="38">Father name is </tspan><tspan x="297.453" y="38">Koem</tspan><tspan x="383.973" y="38">Cheng,</tspan><tspan x="86.2133" y="76">Mother name is </tspan><tspan x="311.213" y="76">Nou</tspan><tspan x="374.713" y="76">Sokhon</tspan></text><path d="M796 355C796 345.059 804.059 337 814 337 823.941 337 832 345.059 832 355 832 364.941 823.941 373 814 373 804.059 373 796 364.941 796 355Z" fill="#3583D8" fill-rule="evenodd"/><text fill="#3583D8" font-family="Trebuchet MS,Trebuchet MS_MSFontService,sans-serif" font-weight="400" font-size="31" transform="translate(719.466 365)">2007</text><path d="M850 314.001C850 300.745 860.745 290 874.001 290L1429 290C1442.25 290 1453 300.745 1453 314.001L1453 409.999C1453 423.255 1442.25 434 1429 434L874.001 434C860.745 434 850 423.255 850 409.999Z" fill="#3583D8" fill-rule="evenodd"/><text fill="#FFFFFF" font-family="Trebuchet MS,Trebuchet MS_MSFontService,sans-serif" font-weight="400" font-size="31" transform="translate(872.092 354)">Enroll Koh Teav Primary <tspan x="340.42" y="0">School</tspan>, and <tspan x="512.587" y="0">fail </tspan><tspan x="49.3734" y="38">at 1</tspan><tspan font-size="21" x="104.373" y="29">st</tspan><tspan x="130.707" y="38">grade </tspan>because <tspan x="342.373" y="38">of too </tspan>small</text><path d="M796 466C796 456.059 804.059 448 814 448 823.941 448 832 456.059 832 466 832 475.941 823.941 484 814 484 804.059 484 796 475.941 796 466Z" fill="#0FBAF3" fill-rule="evenodd"/><text fill="#0FBAF3" font-family="Trebuchet MS,Trebuchet MS_MSFontService,sans-serif" font-weight="400" font-size="31" transform="translate(842.242 474)">2013</text><path d="M179 412.667C179 399.044 190.044 388 203.667 388L756.333 388C769.956 388 781 399.044 781 412.667L781 511.333C781 524.956 769.956 536 756.333 536L203.667 536C190.044 536 179 524.956 179 511.333Z" fill="#0FBAF3" fill-rule="evenodd"/><text fill="#FFFFFF" font-family="Trebuchet MS,Trebuchet MS_MSFontService,sans-serif" font-weight="400" font-size="31" transform="translate(234.472 436)">Enroll secondary school at Hun Sen <tspan x="-9.33333" y="38">Sompoeupoun High School at Kandal </tspan><tspan x="4.24667" y="76">province and studied from 7</tspan><tspan font-size="21" x="400.58" y="67">th</tspan><tspan x="429.747" y="76">–</tspan><tspan x="450.747" y="76">9</tspan><tspan font-size="21" x="467.247" y="67">th</tspan></text><path d="M796 579C796 569.059 804.059 561 814 561 823.941 561 832 569.059 832 579 832 588.941 823.941 597 814 597 804.059 597 796 588.941 796 579Z" fill="#3583D8" fill-rule="evenodd"/><text fill="#3583D8" font-family="Trebuchet MS,Trebuchet MS_MSFontService,sans-serif" font-weight="400" font-size="31" transform="translate(719.466 590)">2016</text><path d="M850 550.834C850 540.984 857.984 533 867.833 533L1435.17 533C1445.02 533 1453 540.984 1453 550.834L1453 622.166C1453 632.016 1445.02 640 1435.17 640L867.833 640C857.984 640 850 632.016 850 622.166Z" fill="#3583D8" fill-rule="evenodd"/><text fill="#FFFFFF" font-family="Trebuchet MS,Trebuchet MS_MSFontService,sans-serif" font-weight="400" font-size="31" transform="translate(937.469 579)">Start new class at high school.<tspan x="6.16669" y="38">Studied from 10</tspan><tspan font-size="21" x="230.5" y="29">th</tspan><tspan x="259.667" y="38">–</tspan><tspan x="280.667" y="38">12</tspan><tspan font-size="21" x="313.667" y="29">th</tspan><tspan x="342.833" y="38">grade</tspan></text><path d="M797 803C797 793.059 805.059 785 815 785 824.941 785 833 793.059 833 803 833 812.941 824.941 821 815 821 805.059 821 797 812.941 797 803Z" fill="#3583D8" fill-rule="evenodd"/><path d="M851 774.334C851 760.895 861.894 750 875.333 750L1428.67 750C1442.11 750 1453 760.895 1453 774.334L1453 871.666C1453 885.105 1442.11 896 1428.67 896L875.333 896C861.894 896 851 885.105 851 871.666Z" fill="#3583D8" fill-rule="evenodd"/><text fill="#FFFFFF" font-family="Trebuchet MS,Trebuchet MS_MSFontService,sans-serif" font-weight="400" font-size="31" transform="translate(921.778 797)">BacII examination at Chung Leap <tspan x="115.113" y="38">On Aug 8</tspan><tspan font-size="21" x="238.553" y="29">th</tspan><tspan x="258.22" y="38">, 2019</tspan><tspan x="84.3333" y="76">Got grade C </tspan>–<tspan x="282" y="76">97.204</tspan></text><path d="M797 1027C797 1017.06 805.059 1009 815 1009 824.941 1009 833 1017.06 833 1027 833 1036.94 824.941 1045 815 1045 805.059 1045 797 1036.94 797 1027Z" fill="#3583D8" fill-rule="evenodd"/><path d="M851 987.834C851 973.566 862.566 962 876.834 962L1428.17 962C1442.43 962 1454 973.566 1454 987.834L1454 1091.17C1454 1105.43 1442.43 1117 1428.17 1117L876.834 1117C862.566 1117 851 1105.43 851 1091.17Z" fill="#3583D8" fill-rule="evenodd"/><text fill="#FFFFFF" font-family="Trebuchet MS,Trebuchet MS_MSFontService,sans-serif" font-weight="400" font-size="31" transform="translate(898.728 1013)">Study <tspan x="87.1666" y="0">Computer Science at National </tspan><tspan x="9.5" y="38">Institute of Post, Telecom, and ICT </tspan><tspan x="62.3333" y="76">(NIPTICT) at Nov 28</tspan><tspan font-size="21" x="337.833" y="67">th</tspan><tspan x="357.5" y="76">, 2019</tspan></text><path d="M797 1251C797 1241.06 805.059 1233 815 1233 824.941 1233 833 1241.06 833 1251 833 1260.94 824.941 1269 815 1269 805.059 1269 797 1260.94 797 1251Z" fill="#3583D8" fill-rule="evenodd"/><text fill="#3583D8" font-family="Trebuchet MS,Trebuchet MS_MSFontService,sans-serif" font-weight="400" font-size="31" transform="translate(717.678 1262)">2020</text><path d="M851 1233.5C851 1222.73 859.731 1214 870.501 1214L1434.5 1214C1445.27 1214 1454 1222.73 1454 1233.5L1454 1311.5C1454 1322.27 1445.27 1331 1434.5 1331L870.501 1331C859.731 1331 851 1322.27 851 1311.5Z" fill="#3583D8" fill-rule="evenodd"/><text fill="#FFFFFF" font-family="Trebuchet MS,Trebuchet MS_MSFontService,sans-serif" font-weight="400" font-size="31" transform="translate(886.908 1265)">Joined <tspan x="102.167" y="0">a competition at Technovation </tspan><tspan x="-5.82001" y="38">girl, to learn and fail at Feb 20</tspan><tspan font-size="21" x="430.18" y="29">th</tspan><tspan x="449.847" y="38">, 2020</tspan></text><path d="M796 1475C796 1465.06 804.059 1457 814 1457 823.941 1457 832 1465.06 832 1475 832 1484.94 823.941 1493 814 1493 804.059 1493 796 1484.94 796 1475Z" fill="#3583D8" fill-rule="evenodd"/><path d="M850 1429.17C850 1417.48 859.477 1408 871.167 1408L1431.83 1408C1443.52 1408 1453 1417.48 1453 1429.17L1453 1513.83C1453 1525.52 1443.52 1535 1431.83 1535L871.167 1535C859.477 1535 850 1525.52 850 1513.83Z" fill="#3583D8" fill-rule="evenodd"/><text fill="#FFFFFF" font-family="Trebuchet MS,Trebuchet MS_MSFontService,sans-serif" font-weight="400" font-size="31" transform="translate(890.411 1464)">Build an Android App from Kudular to <tspan x="155.453" y="38">control a robot</tspan></text><path d="M797 1700C797 1690.06 805.059 1682 815 1682 824.941 1682 833 1690.06 833 1700 833 1709.94 824.941 1718 815 1718 805.059 1718 797 1709.94 797 1700Z" fill="#3583D8" fill-rule="evenodd"/><text fill="#3583D8" font-family="Trebuchet MS,Trebuchet MS_MSFontService,sans-serif" font-weight="400" font-size="31" transform="translate(720.095 1710)">2021</text><path d="M851 1678.5C851 1669.39 858.387 1662 867.5 1662L1436.5 1662C1445.61 1662 1453 1669.39 1453 1678.5L1453 1744.5C1453 1753.61 1445.61 1761 1436.5 1761L867.5 1761C858.387 1761 851 1753.61 851 1744.5Z" fill="#3583D8" fill-rule="evenodd"/><text fill="#FFFFFF" font-family="Trebuchet MS,Trebuchet MS_MSFontService,sans-serif" font-weight="400" font-size="31" transform="translate(958.283 1704)">Expected to first internship<tspan x="122.067" y="38">On Term </tspan><tspan x="248.433" y="38">6</tspan></text><path d="M797 1924C797 1914.06 805.059 1906 815 1906 824.941 1906 833 1914.06 833 1924 833 1933.94 824.941 1942 815 1942 805.059 1942 797 1933.94 797 1924Z" fill="#3583D8" fill-rule="evenodd"/><path d="M851 1897.83C851 1891.3 856.298 1886 862.834 1886L1442.17 1886C1448.7 1886 1454 1891.3 1454 1897.83L1454 1945.17C1454 1951.7 1448.7 1957 1442.17 1957L862.834 1957C856.298 1957 851 1951.7 851 1945.17Z" fill="#3583D8" fill-rule="evenodd"/><text fill="#FFFFFF" font-family="Trebuchet MS,Trebuchet MS_MSFontService,sans-serif" font-weight="400" font-size="31" transform="translate(900.29 1933)">Expected to Graduate from NIPTICT</text><path d="M796 690C796 680.059 804.059 672 814 672 823.941 672 832 680.059 832 690 832 699.941 823.941 708 814 708 804.059 708 796 699.941 796 690Z" fill="#0FBAF3" fill-rule="evenodd"/><text fill="#0FBAF3" font-family="Trebuchet MS,Trebuchet MS_MSFontService,sans-serif" font-weight="400" font-size="31" transform="translate(842.242 697)">2019</text><path d="M178 668.334C178 657.656 186.656 649 197.334 649L761.666 649C772.344 649 781 657.656 781 668.334L781 745.666C781 756.344 772.344 765 761.666 765L197.334 765C186.656 765 178 756.344 178 745.666Z" fill="#0FBAF3" fill-rule="evenodd"/><text fill="#FFFFFF" font-family="Trebuchet MS,Trebuchet MS_MSFontService,sans-serif" font-weight="400" font-size="31" transform="translate(236.51 700)">In relationship with Hong Seavleng <tspan x="121.087" y="38">At May 18</tspan><tspan font-size="21" x="258.253" y="29">th</tspan><tspan x="277.92" y="38">, 2019</tspan></text><path d="M796 914C796 904.059 804.059 896 814 896 823.941 896 832 904.059 832 914 832 923.941 823.941 932 814 932 804.059 932 796 923.941 796 914Z" fill="#0FBAF3" fill-rule="evenodd"/><path d="M176 876.667C176 864.148 186.148 854 198.667 854L758.333 854C770.852 854 781 864.148 781 876.667L781 967.333C781 979.852 770.852 990 758.333 990L198.667 990C186.148 990 176 979.852 176 967.333Z" fill="#0FBAF3" fill-rule="evenodd"/><text fill="#FFFFFF" font-family="Trebuchet MS,Trebuchet MS_MSFontService,sans-serif" font-weight="400" font-size="31" transform="translate(221.358 895)">Got scholarship from examination at <tspan x="-17.1333" y="38">NIPTICT on Oct 8</tspan><tspan font-size="21" x="220.3" y="29">th</tspan><tspan x="239.967" y="38">, 2019 and UC at the </tspan><tspan x="176.667" y="76">end of </tspan><tspan x="275.833" y="76">year </tspan></text><path d="M795 1138C795 1128.06 803.283 1120 813.5 1120 823.717 1120 832 1128.06 832 1138 832 1147.94 823.717 1156 813.5 1156 803.283 1156 795 1147.94 795 1138Z" fill="#0FBAF3" fill-rule="evenodd"/><path d="M176 1098.67C176 1087.25 185.253 1078 196.667 1078L758.333 1078C769.747 1078 779 1087.25 779 1098.67L779 1181.33C779 1192.75 769.747 1202 758.333 1202L196.667 1202C185.253 1202 176 1192.75 176 1181.33Z" fill="#0FBAF3" fill-rule="evenodd"/><text fill="#FFFFFF" font-family="Trebuchet MS,Trebuchet MS_MSFontService,sans-serif" font-weight="400" font-size="31" transform="translate(198.975 1133)">Study English literature at University of <tspan x="54.3333" y="38">Cambodia (UC) on Nov 4</tspan><tspan font-size="21" x="395.5" y="29">th</tspan><tspan x="415.167" y="38">, 2019</tspan></text><path d="M796 1810C796 1800.06 804.059 1792 814 1792 823.941 1792 832 1800.06 832 1810 832 1819.94 823.941 1828 814 1828 804.059 1828 796 1819.94 796 1810Z" fill="#0FBAF3" fill-rule="evenodd"/><path d="M178 1787C178 1777.61 185.611 1770 195.001 1770L763.999 1770C773.389 1770 781 1777.61 781 1787L781 1855C781 1864.39 773.389 1872 763.999 1872L195.001 1872C185.611 1872 178 1864.39 178 1855Z" fill="#0FBAF3" fill-rule="evenodd"/><text fill="#FFFFFF" font-family="Trebuchet MS,Trebuchet MS_MSFontService,sans-serif" font-weight="400" font-size="31" transform="translate(266.323 1813)">Expected to second internship<tspan x="133.32" y="38">On Term </tspan><tspan x="259.687" y="38">10</tspan></text><path d="M796 1362C796 1352.06 804.059 1344 814 1344 823.941 1344 832 1352.06 832 1362 832 1371.94 823.941 1380 814 1380 804.059 1380 796 1371.94 796 1362Z" fill="#0FBAF3" fill-rule="evenodd"/><path d="M176 1333.33C176 1322.66 184.656 1314 195.334 1314L761.666 1314C772.344 1314 781 1322.66 781 1333.33L781 1410.67C781 1421.34 772.344 1430 761.666 1430L195.334 1430C184.656 1430 176 1421.34 176 1410.67Z" fill="#0FBAF3" fill-rule="evenodd"/><text fill="#FFFFFF" font-family="Trebuchet MS,Trebuchet MS_MSFontService,sans-serif" font-weight="400" font-size="31" transform="translate(224.524 1364)">Joined Erobot<tspan x="204.333" y="0">team which made me </tspan><tspan x="21.1667" y="38">realize lots of people and things.</tspan></text><path d="M796 1589C796 1579.06 804.059 1571 814 1571 823.941 1571 832 1579.06 832 1589 832 1598.94 823.941 1607 814 1607 804.059 1607 796 1598.94 796 1589Z" fill="#0FBAF3" fill-rule="evenodd"/><path d="M175 1545.33C175 1534.1 184.104 1525 195.333 1525L757.667 1525C768.896 1525 778 1534.1 778 1545.33L778 1626.67C778 1637.9 768.896 1647 757.667 1647L195.333 1647C184.104 1647 175 1637.9 175 1626.67Z" fill="#0FBAF3" fill-rule="evenodd"/><text fill="#FFFFFF" font-family="Trebuchet MS,Trebuchet MS_MSFontService,sans-serif" font-weight="400" font-size="31" transform="translate(199.13 1578)">Build a website and hosted with Netlify <tspan x="158.027" y="38">on Apr 24</tspan><tspan font-size="21" x="290.467" y="29">th</tspan><tspan x="310.133" y="38">, 2020</tspan></text><path d="M796 2146C796 2136.06 804.059 2128 814 2128 823.941 2128 832 2136.06 832 2146 832 2155.94 823.941 2164 814 2164 804.059 2164 796 2155.94 796 2146Z" fill="#3583D8" fill-rule="evenodd"/><text fill="#3583D8" font-family="Trebuchet MS,Trebuchet MS_MSFontService,sans-serif" font-weight="400" font-size="31" transform="translate(719.647 2157)">2025</text><path d="M850 2120.83C850 2114.3 855.298 2109 861.834 2109L1441.17 2109C1447.7 2109 1453 2114.3 1453 2120.83L1453 2168.17C1453 2174.7 1447.7 2180 1441.17 2180L861.834 2180C855.298 2180 850 2174.7 850 2168.17Z" fill="#3583D8" fill-rule="evenodd"/><text fill="#FFFFFF" font-family="Trebuchet MS,Trebuchet MS_MSFontService,sans-serif" font-weight="400" font-size="31" transform="translate(904.4 2156)">-<tspan x="21" y="0">-</tspan><tspan x="42" y="0">-</tspan><tspan x="63" y="0">-</tspan><tspan x="84" y="0">-</tspan><tspan x="105" y="0">-</tspan><tspan x="126" y="0">-</tspan><tspan x="147" y="0">-</tspan><tspan x="168" y="0">-</tspan><tspan x="189" y="0">-</tspan><tspan x="210" y="0">-</tspan><tspan x="231" y="0">-</tspan><tspan x="252" y="0">-</tspan><tspan x="273" y="0">-</tspan><tspan x="294" y="0">-</tspan><tspan x="315" y="0">-</tspan><tspan x="336" y="0">-</tspan><tspan x="357" y="0">-</tspan><tspan x="378" y="0">-</tspan><tspan x="399" y="0">-</tspan><tspan x="420" y="0">-</tspan><tspan x="441" y="0">-</tspan><tspan x="462" y="0">-</tspan><tspan x="483" y="0">-</tspan><tspan fill="#0FBAF3" x="-52.4606" y="-338">2023</tspan></text><path d="M796 2035C796 2025.06 804.059 2017 814 2017 823.941 2017 832 2025.06 832 2035 832 2044.94 823.941 2053 814 2053 804.059 2053 796 2044.94 796 2035Z" fill="#0FBAF3" fill-rule="evenodd"/><path d="M175 1992.67C175 1980.7 184.701 1971 196.667 1971L756.333 1971C768.299 1971 778 1980.7 778 1992.67L778 2079.33C778 2091.3 768.299 2101 756.333 2101L196.667 2101C184.701 2101 175 2091.3 175 2079.33Z" fill="#0FBAF3" fill-rule="evenodd"/><text fill="#FFFFFF" font-family="Trebuchet MS,Trebuchet MS_MSFontService,sans-serif" font-weight="400" font-size="31" transform="translate(209.13 2028)">Expected to Graduate from University <tspan x="179.413" y="38">of Cambodia</tspan><tspan fill="#0FBAF3" x="642.81" y="16">2024</tspan></text><path d="M798 2261C798 2251.06 806.059 2243 816 2243 825.941 2243 834 2251.06 834 2261 834 2270.94 825.941 2279 816 2279 806.059 2279 798 2270.94 798 2261Z" fill="#0FBAF3" fill-rule="evenodd"/><path d="M176 2225.67C176 2219.22 181.223 2214 187.667 2214L770.333 2214C776.777 2214 782 2219.22 782 2225.67L782 2272.33C782 2278.78 776.777 2284 770.333 2284L187.667 2284C181.223 2284 176 2278.78 176 2272.33Z" fill="#0FBAF3" fill-rule="evenodd"/><text fill="#FFFFFF" font-family="Trebuchet MS,Trebuchet MS_MSFontService,sans-serif" font-weight="400" font-size="31" transform="translate(231.691 2261)">-<tspan x="21" y="0">-</tspan><tspan x="42" y="0">-</tspan><tspan x="63" y="0">-</tspan><tspan x="84" y="0">-</tspan><tspan x="105" y="0">-</tspan><tspan x="126" y="0">-</tspan><tspan x="147" y="0">-</tspan><tspan x="168" y="0">-</tspan><tspan x="189" y="0">-</tspan><tspan x="210" y="0">-</tspan><tspan x="231" y="0">-</tspan><tspan x="252" y="0">-</tspan><tspan x="273" y="0">-</tspan><tspan x="294" y="0">-</tspan><tspan x="315" y="0">-</tspan><tspan x="336" y="0">-</tspan><tspan x="357" y="0">-</tspan><tspan x="378" y="0">-</tspan><tspan x="399" y="0">-</tspan><tspan x="420" y="0">-</tspan><tspan x="441" y="0">-</tspan><tspan x="462" y="0">-</tspan><tspan x="483" y="0">-</tspan><tspan fill="#0FBAF3" x="621.582" y="10">2026</tspan></text></g></svg>